<?xml version="1.0" standalone="no"?>
<!DOCTYPE svg PUBLIC "-//W3C//DTD SVG 20010904//EN"
 "http://www.w3.org/TR/2001/REC-SVG-20010904/DTD/svg10.dtd">
<svg version="1.0" xmlns="http://www.w3.org/2000/svg"
 width="440.000000pt" height="358.000000pt" viewBox="0 0 440.000000 358.000000"
 preserveAspectRatio="xMidYMid meet">

<g transform="translate(0.000000,358.000000) scale(0.100000,-0.100000)"
fill="#000000" stroke="none">
<path d="M2230 1064 c0 -107 -1 -116 -17 -109 -63 26 -136 21 -182 -12 -14
-11 -37 -40 -51 -64 -21 -36 -25 -57 -25 -119 0 -64 5 -83 27 -121 52 -89 175
-113 245 -47 l23 21 0 -26 c0 -26 2 -27 55 -27 l55 0 0 310 0 310 -65 0 -65 0
0 -116z m-40 -194 c37 -20 49 -135 19 -191 -10 -20 -53 -32 -79 -24 -24 8 -40
55 -40 117 0 57 13 86 43 98 29 12 35 12 57 0z"/>
<path d="M2710 1064 c0 -107 -1 -116 -17 -109 -63 26 -136 21 -182 -12 -14
-11 -37 -40 -51 -64 -21 -36 -25 -57 -25 -119 0 -64 5 -83 27 -121 47 -79 161
-110 228 -61 36 27 40 27 40 2 0 -18 7 -20 55 -20 l55 0 0 310 0 310 -65 0
-65 0 0 -116z m-40 -194 c37 -20 49 -135 19 -191 -10 -20 -53 -32 -79 -24 -24
8 -40 55 -40 117 0 57 13 86 43 98 29 12 35 12 57 0z"/>
<path d="M2963 1168 c-27 -13 -47 -59 -38 -88 10 -32 68 -56 100 -42 55 25 58
100 5 127 -33 17 -37 17 -67 3z"/>
<path d="M3177 1160 c-19 -15 -27 -30 -27 -53 0 -38 7 -50 37 -66 33 -17 57
-13 81 12 62 65 -21 162 -91 107z"/>
<path d="M750 1131 c-78 -25 -127 -70 -161 -146 -18 -40 -23 -68 -23 -140 0
-97 14 -142 60 -202 66 -86 233 -116 319 -57 l34 23 3 -22 c3 -19 10 -22 51
-25 l47 -3 0 150 0 151 -120 0 -120 0 0 -55 0 -55 55 0 c46 0 55 -3 55 -17 0
-39 -42 -63 -108 -63 -80 0 -120 48 -129 157 -11 136 28 193 134 193 55 0 83
-17 83 -51 0 -22 19 -23 95 -5 47 11 50 14 48 41 -3 40 -31 75 -82 104 -34 19
-61 24 -130 27 -47 2 -97 0 -111 -5z"/>
<path d="M3405 1033 c-4 -21 -7 -45 -8 -53 -1 -8 -12 -16 -25 -18 -19 -3 -22
-9 -22 -48 0 -40 2 -44 25 -44 l25 0 0 -110 c0 -128 12 -164 65 -186 19 -8 57
-14 84 -14 58 0 92 24 115 81 l15 36 -50 15 c-46 15 -49 15 -49 -2 0 -19 -25
-34 -41 -24 -5 3 -9 50 -9 105 l0 99 55 0 55 0 0 45 0 45 -55 0 -55 0 0 55 0
55 -60 0 -59 0 -6 -37z"/>
<path d="M1680 972 c-75 -8 -122 -42 -151 -107 -27 -60 -25 -168 4 -220 59
-103 242 -125 324 -38 45 47 42 59 -17 72 -45 10 -52 9 -70 -9 -41 -41 -109
-20 -123 37 -5 22 -4 22 122 25 l126 3 -2 63 c-3 101 -51 157 -148 171 -22 4
-51 5 -65 3z m70 -118 c14 -36 6 -44 -51 -44 -42 0 -49 3 -49 19 0 28 27 51
61 51 23 0 32 -6 39 -26z"/>
<path d="M1324 934 l-34 -35 0 30 0 31 -60 0 -60 0 0 -200 0 -200 65 0 65 0 0
105 c0 75 4 115 15 135 20 39 49 54 75 40 17 -9 24 -4 55 42 l35 53 -21 18
c-12 10 -38 17 -61 17 -34 0 -47 -6 -74 -36z"/>
<path d="M2930 760 l0 -200 65 0 65 0 0 200 0 200 -65 0 -65 0 0 -200z"/>
<path d="M3152 763 l3 -198 63 -3 62 -3 0 201 0 200 -65 0 -65 0 2 -197z"/>
</g>
</svg>
